<svg xmlns="http://www.w3.org/2000/svg" width="10" height="14" viewBox="0 0 7 14">
  <path fill="#071228" fill-rule="evenodd" d="M238,237.800546 L238,235.428863 C238.056051,235.420475 238.112102,235.405796 238.168154,235.405796 C238.488598,235.403699 238.807984,235.404748 239.12737,235.404748 L239.367439,235.404748 C239.367439,235.011564 239.361093,234.642496 239.368496,234.274476 C239.376957,233.935814 239.369554,233.595055 239.42349,233.263732 C239.562031,232.396632 239.973426,231.701483 240.795159,231.295718 C241.210784,231.091262 241.658136,231.007383 242.119237,231.003189 C242.825694,230.99585 243.534266,231.003189 244.241781,231.005286 C244.277738,231.005286 244.312638,231.012626 244.348595,231.017868 L244.348595,233.339224 C243.853652,233.339224 243.36717,233.338175 242.880687,233.339224 C242.446026,233.340272 242.222879,233.558358 242.219706,233.992433 C242.216533,234.382471 242.218648,234.772509 242.218648,235.162547 L242.218648,235.411039 L244.393013,235.411039 C244.308407,236.219424 244.226975,237.007888 244.143426,237.813128 L242.211245,237.813128 L242.211245,244.6 L239.366381,244.6 L239.366381,237.800546 L238,237.800546 Z" transform="translate(-238 -231)"/>
</svg>
