<?xml version="1.0" encoding="UTF-8"?>
<svg width="21px" height="19px" viewBox="0 0 21 19" version="1.1" xmlns="http://www.w3.org/2000/svg" xmlns:xlink="http://www.w3.org/1999/xlink">
    <!-- Generator: Sketch 53 (72520) - https://sketchapp.com -->
    <title>fb</title>
    <desc>Created with Sketch.</desc>
    <g id="fb" stroke="none" stroke-width="1" fill="none" fill-rule="evenodd">
        <path d="M7,9.43185405 L7,6.49125415 C7.0689,6.48085415 7.13779999,6.46265415 7.20669999,6.46265415 C7.60059998,6.46005415 7.99319996,6.46135415 8.38579995,6.46135415 L8.68089994,6.46135415 C8.68089994,5.97385417 8.67309994,5.51625419 8.68219994,5.05995421 C8.69259994,4.64005422 8.68349994,4.21755424 8.74979994,3.80675425 C8.92009993,2.73165429 9.42579991,1.86975432 10.4358999,1.36665434 C10.9467999,1.11315435 11.4966998,1.00915435 12.0634998,1.00395435 C12.9318998,0.994854355 13.8028998,1.00395435 14.6725997,1.00655435 C14.7167997,1.00655435 14.7596997,1.01565435 14.8038997,1.02215435 L14.8038997,3.90035425 C14.1954997,3.90035425 13.5974998,3.89905425 12.9994998,3.90035425 C12.4651998,3.90165425 12.1908998,4.17205424 12.1869998,4.71025422 C12.1830998,5.1938542 12.1856998,5.67745418 12.1856998,6.16105417 L12.1856998,6.46915415 L14.8584997,6.46915415 C14.7544997,7.47145412 14.6543997,8.44905408 14.5516997,9.44745405 L12.1765998,9.44745405 L12.1765998,17.8623537 L8.67959994,17.8623537 L8.67959994,9.43185405 L7,9.43185405 Z" id="Fill-13" fill="#687483"></path>
    </g>
</svg>