<?xml version="1.0" encoding="UTF-8"?>
<svg width="21px" height="19px" viewBox="0 0 21 19" version="1.1" xmlns="http://www.w3.org/2000/svg" xmlns:xlink="http://www.w3.org/1999/xlink">
    <!-- Generator: Sketch 53 (72520) - https://sketchapp.com -->
    <title>instagram</title>
    <desc>Created with Sketch.</desc>
    <g id="instagram" stroke="none" stroke-width="1" fill="none" fill-rule="evenodd">
        <path d="M10.5,4.62276786 C11.3764883,4.62276786 12.1893599,4.8418901 12.9386161,5.28013393 C13.6878722,5.71837776 14.2816222,6.31212776 14.7198661,7.06138393 C15.1581099,7.8106401 15.3772321,8.62351169 15.3772321,9.5 C15.3772321,10.3764883 15.1581099,11.1893599 14.7198661,11.9386161 C14.2816222,12.6878722 13.6878722,13.2816222 12.9386161,13.7198661 C12.1893599,14.1581099 11.3764883,14.3772321 10.5,14.3772321 C9.62351169,14.3772321 8.8106401,14.1581099 8.06138393,13.7198661 C7.31212776,13.2816222 6.71837776,12.6878722 6.28013393,11.9386161 C5.8418901,11.1893599 5.62276786,10.3764883 5.62276786,9.5 C5.62276786,8.62351169 5.8418901,7.8106401 6.28013393,7.06138393 C6.71837776,6.31212776 7.31212776,5.71837776 8.06138393,5.28013393 C8.8106401,4.8418901 9.62351169,4.62276786 10.5,4.62276786 Z M10.5,12.6808036 C11.3764883,12.6808036 12.1257438,12.3697919 12.7477679,11.7477679 C13.3697919,11.1257438 13.6808036,10.3764883 13.6808036,9.5 C13.6808036,8.62351169 13.3697919,7.87425617 12.7477679,7.25223214 C12.1257438,6.63020812 11.3764883,6.31919643 10.5,6.31919643 C9.62351169,6.31919643 8.87425617,6.63020812 8.25223214,7.25223214 C7.63020812,7.87425617 7.31919643,8.62351169 7.31919643,9.5 C7.31919643,10.3764883 7.63020812,11.1257438 8.25223214,11.7477679 C8.87425617,12.3697919 9.62351169,12.6808036 10.5,12.6808036 Z M16.734375,4.41071429 C16.706101,4.72172597 16.5859375,4.9903276 16.3738839,5.21651786 C16.1618304,5.44270812 15.9002974,5.55580357 15.5892857,5.55580357 C15.278274,5.55580357 15.0096724,5.44270812 14.7834821,5.21651786 C14.5572919,4.9903276 14.4441964,4.72172597 14.4441964,4.41071429 C14.4441964,4.0997026 14.5572919,3.83110097 14.7834821,3.60491071 C15.0096724,3.37872045 15.278274,3.265625 15.5892857,3.265625 C15.9002974,3.265625 16.168899,3.37872045 16.3950893,3.60491071 C16.6212795,3.83110097 16.734375,4.0997026 16.734375,4.41071429 Z M19.9575893,5.55580357 C19.9858633,6.34747045 20,7.6622026 20,9.5 C20,11.3377974 19.9787946,12.6595982 19.9363839,13.4654018 C19.8939732,14.2712054 19.7738097,14.9709821 19.5758929,15.5647321 C19.3214286,16.2715776 18.9326635,16.886533 18.4095982,17.4095982 C17.886533,17.9326635 17.2715776,18.3214286 16.5647321,18.5758929 C15.9709821,18.7738097 15.2712054,18.8939732 14.4654018,18.9363839 C13.6595982,18.9787946 12.3377974,19 10.5,19 C8.6622026,19 7.34040179,18.9787946 6.53459821,18.9363839 C5.72879464,18.8939732 5.02901786,18.7596724 4.43526786,18.5334821 C3.7284224,18.3072919 3.11346705,17.9326635 2.59040179,17.4095982 C2.06733653,16.886533 1.67857143,16.2715776 1.42410714,15.5647321 C1.22619026,14.9709821 1.10602679,14.2712054 1.06361607,13.4654018 C1.02120536,12.6595982 1,11.3377974 1,9.5 C1,7.6622026 1.02120536,6.34040179 1.06361607,5.53459821 C1.10602679,4.72879464 1.22619026,4.02901786 1.42410714,3.43526786 C1.67857143,2.7284224 2.06733653,2.11346705 2.59040179,1.59040179 C3.11346705,1.06733653 3.7284224,0.678571429 4.43526786,0.424107143 C5.02901786,0.22619026 5.72879464,0.106026786 6.53459821,0.0636160714 C7.34040179,0.0212053571 8.6622026,0 10.5,0 C12.3377974,0 13.6595982,0.0212053571 14.4654018,0.0636160714 C15.2712054,0.106026786 15.9709821,0.22619026 16.5647321,0.424107143 C17.2715776,0.678571429 17.886533,1.06733653 18.4095982,1.59040179 C18.9326635,2.11346705 19.3214286,2.7284224 19.5758929,3.43526786 C19.7738097,4.02901786 19.9010419,4.73586331 19.9575893,5.55580357 Z M17.921875,15.0982143 C18.0915179,14.6175597 18.2046133,13.8541669 18.2611607,12.8080357 C18.2894347,12.1860117 18.3035714,11.309524 18.3035714,10.1785714 L18.3035714,8.82142857 C18.3035714,7.6622026 18.2894347,6.78571429 18.2611607,6.19196429 C18.2046133,5.11755974 18.0915179,4.35416688 17.921875,3.90178571 C17.5825893,3.0252974 16.9747026,2.41741071 16.0982143,2.078125 C15.6458331,1.90848214 14.8824403,1.79538669 13.8080357,1.73883929 C13.1860117,1.71056526 12.309524,1.69642857 11.1785714,1.69642857 L9.82142857,1.69642857 C8.69047597,1.69642857 7.81398831,1.71056526 7.19196429,1.73883929 C6.14583312,1.79538669 5.38244026,1.90848214 4.90178571,2.078125 C4.0252974,2.41741071 3.41741071,3.0252974 3.078125,3.90178571 C2.90848214,4.35416688 2.79538669,5.11755974 2.73883929,6.19196429 C2.71056526,6.81398831 2.69642857,7.69047597 2.69642857,8.82142857 L2.69642857,10.1785714 C2.69642857,11.309524 2.71056526,12.1860117 2.73883929,12.8080357 C2.79538669,13.8541669 2.90848214,14.6175597 3.078125,15.0982143 C3.44568474,15.9747026 4.05357143,16.5825893 4.90178571,16.921875 C5.38244026,17.0915179 6.14583312,17.2046133 7.19196429,17.2611607 C7.81398831,17.2894347 8.69047597,17.3035714 9.82142857,17.3035714 L11.1785714,17.3035714 C12.3377974,17.3035714 13.2142857,17.2894347 13.8080357,17.2611607 C14.8824403,17.2046133 15.6458331,17.0915179 16.0982143,16.921875 C16.9747026,16.5543153 17.5825893,15.9464286 17.921875,15.0982143 Z" fill="#687483"></path>
    </g>
</svg>