<svg xmlns="http://www.w3.org/2000/svg" width="16" height="16" viewBox="0 0 16 16">
  <path fill="#071228" fill-rule="evenodd" d="M393.591703,233.698214 C394.292128,233.698214 394.941716,233.873512 395.540466,234.224107 C396.139217,234.574702 396.613698,235.049702 396.96391,235.649107 C397.314123,236.248512 397.489229,236.898809 397.489229,237.6 C397.489229,238.301191 397.314123,238.951488 396.96391,239.550893 C396.613698,240.150298 396.139217,240.625298 395.540466,240.975893 C394.941716,241.326488 394.292128,241.501786 393.591703,241.501786 C392.891278,241.501786 392.241691,241.326488 391.64294,240.975893 C391.044189,240.625298 390.569708,240.150298 390.219496,239.550893 C389.869283,238.951488 389.694177,238.301191 389.694177,237.6 C389.694177,236.898809 389.869283,236.248512 390.219496,235.649107 C390.569708,235.049702 391.044189,234.574702 391.64294,234.224107 C392.241691,233.873512 392.891278,233.698214 393.591703,233.698214 Z M393.591703,240.144643 C394.292128,240.144643 394.890878,239.895834 395.387954,239.398214 C395.88503,238.900595 396.133568,238.301191 396.133568,237.6 C396.133568,236.898809 395.88503,236.299405 395.387954,235.801786 C394.890878,235.304166 394.292128,235.055357 393.591703,235.055357 C392.891278,235.055357 392.292528,235.304166 391.795452,235.801786 C391.298376,236.299405 391.049838,236.898809 391.049838,237.6 C391.049838,238.301191 391.298376,238.900595 391.795452,239.398214 C392.292528,239.895834 392.891278,240.144643 393.591703,240.144643 Z M398.573758,233.528571 C398.551164,233.777381 398.455138,233.992262 398.28568,234.173214 C398.116223,234.354166 397.907225,234.444643 397.658687,234.444643 C397.410149,234.444643 397.195502,234.354166 397.014748,234.173214 C396.833993,233.992262 396.743615,233.777381 396.743615,233.528571 C396.743615,233.279762 396.833993,233.064881 397.014748,232.883929 C397.195502,232.702976 397.410149,232.6125 397.658687,232.6125 C397.907225,232.6125 398.121871,232.702976 398.302626,232.883929 C398.483381,233.064881 398.573758,233.279762 398.573758,233.528571 Z M401.149515,234.444643 C401.172109,235.077976 401.183406,236.129762 401.183406,237.6 C401.183406,239.070238 401.16646,240.127679 401.132569,240.772321 C401.098677,241.416964 401.002651,241.976786 400.844491,242.451786 C400.641142,243.017262 400.330469,243.509226 399.912474,243.927679 C399.494478,244.346131 399.003051,244.657143 398.438192,244.860714 C397.963711,245.019048 397.4045,245.115179 396.760561,245.149107 C396.116622,245.183036 395.060336,245.2 393.591703,245.2 C392.12307,245.2 391.066784,245.183036 390.422845,245.149107 C389.778906,245.115179 389.219695,245.007738 388.745214,244.826786 C388.180355,244.645834 387.688928,244.346131 387.270932,243.927679 C386.852937,243.509226 386.542265,243.017262 386.338915,242.451786 C386.180755,241.976786 386.084729,241.416964 386.050837,240.772321 C386.016946,240.127679 386,239.070238 386,237.6 C386,236.129762 386.016946,235.072321 386.050837,234.427679 C386.084729,233.783036 386.180755,233.223214 386.338915,232.748214 C386.542265,232.182738 386.852937,231.690774 387.270932,231.272321 C387.688928,230.853869 388.180355,230.542857 388.745214,230.339286 C389.219695,230.180952 389.778906,230.084821 390.422845,230.050893 C391.066784,230.016964 392.12307,230 393.591703,230 C395.060336,230 396.116622,230.016964 396.760561,230.050893 C397.4045,230.084821 397.963711,230.180952 398.438192,230.339286 C399.003051,230.542857 399.494478,230.853869 399.912474,231.272321 C400.330469,231.690774 400.641142,232.182738 400.844491,232.748214 C401.002651,233.223214 401.104326,233.788691 401.149515,234.444643 Z M399.522721,242.078571 C399.658287,241.694048 399.748665,241.083334 399.793853,240.246429 C399.816448,239.748809 399.827745,239.047619 399.827745,238.142857 L399.827745,237.057143 C399.827745,236.129762 399.816448,235.428571 399.793853,234.953571 C399.748665,234.094048 399.658287,233.483334 399.522721,233.121429 C399.251589,232.420238 398.76581,231.933929 398.065385,231.6625 C397.703875,231.526786 397.093828,231.436309 396.235243,231.391071 C395.738167,231.368452 395.037742,231.357143 394.133968,231.357143 L393.049439,231.357143 C392.145664,231.357143 391.44524,231.368452 390.948164,231.391071 C390.112172,231.436309 389.502125,231.526786 389.118021,231.6625 C388.417596,231.933929 387.931817,232.420238 387.660685,233.121429 C387.525119,233.483334 387.434741,234.094048 387.389553,234.953571 C387.366958,235.451191 387.355661,236.152381 387.355661,237.057143 L387.355661,238.142857 C387.355661,239.047619 387.366958,239.748809 387.389553,240.246429 C387.434741,241.083334 387.525119,241.694048 387.660685,242.078571 C387.954412,242.779762 388.44019,243.266071 389.118021,243.5375 C389.502125,243.673214 390.112172,243.763691 390.948164,243.808929 C391.44524,243.831548 392.145664,243.842857 393.049439,243.842857 L394.133968,243.842857 C395.060336,243.842857 395.760761,243.831548 396.235243,243.808929 C397.093828,243.763691 397.703875,243.673214 398.065385,243.5375 C398.76581,243.243452 399.251589,242.757143 399.522721,242.078571 Z" transform="translate(-386 -230)"/>
</svg>
