<svg xmlns="http://www.w3.org/2000/svg" width="15" height="15" viewBox="0 0 15 15">
  <path fill="#071228" fill-rule="evenodd" d="M321.372868,238.90615 C321.393331,240.737787 321.38003,242.568363 321.38003,244.4 L318.275779,244.4 C318.274756,244.306614 318.272709,244.213228 318.272709,244.119842 C318.272709,242.509997 318.280895,240.900151 318.26657,239.290305 C318.262478,238.910395 318.225644,238.517749 318.131514,238.150573 C317.842984,237.022514 316.561995,236.61395 315.682082,237.351487 C315.204268,237.753683 314.991452,238.272611 314.994522,238.912517 C315.00373,240.667748 314.998614,242.422978 314.997591,244.17927 C314.997591,244.252493 314.979174,244.325716 314.968943,244.4 L311.897432,244.4 C311.887201,244.343756 311.866738,244.288574 311.866738,244.233391 C311.8739,241.083739 311.883108,237.934087 311.891293,234.784436 C311.891293,234.755783 311.896409,234.727131 311.900502,234.686805 L314.991452,234.686805 L314.991452,235.97829 C315.002707,235.980412 315.014985,235.983596 315.026239,235.985718 C315.123439,235.854129 315.215523,235.719356 315.317839,235.592011 C315.850902,234.925576 316.537439,234.557338 317.365171,234.476687 C318.288057,234.386484 319.161831,234.536114 319.925104,235.121898 C320.626988,235.658867 321.032158,236.407016 321.200978,237.277203 C321.304317,237.810988 321.366738,238.361752 321.372868,238.90615 Z M307.053716,234.686274 L310.157967,234.686274 C310.161036,234.745702 310.166152,234.807252 310.166152,234.868801 C310.167175,237.982372 310.167175,241.097004 310.166152,244.211636 C310.166152,244.274247 310.150805,244.336858 310.143643,244.399469 L307.072132,244.399469 C307.065993,244.325185 307.053716,244.24984 307.053716,244.174494 C307.053716,241.083209 307.053716,237.992984 307.053716,234.901699 L307.053716,234.686274 Z M308.610446,230 C309.50059,230 310.220891,230.748148 310.220891,231.670334 C310.220891,232.59252 309.50059,233.340668 308.610446,233.340668 C307.720301,233.340668 307,232.59252 307,231.670334 C307,230.748148 307.720301,230 308.610446,230 Z" transform="translate(-307 -230)"/>
</svg>
