<?xml version="1.0" encoding="UTF-8"?>
<svg width="21px" height="19px" viewBox="0 0 21 19" version="1.1" xmlns="http://www.w3.org/2000/svg" xmlns:xlink="http://www.w3.org/1999/xlink">
    <!-- Generator: Sketch 53 (72520) - https://sketchapp.com -->
    <title>linkdn</title>
    <desc>Created with Sketch.</desc>
    <g id="linkdn" stroke="none" stroke-width="1" fill="none" fill-rule="evenodd">
        <path d="M19.2618793,11.9102496 C19.2878793,14.1540495 19.2709793,16.3965494 19.2709793,18.6403494 L15.3267795,18.6403494 C15.3254795,18.5259494 15.3228795,18.4115494 15.3228795,18.2971494 C15.3228795,16.3250494 15.3332795,14.3529495 15.3150795,12.3808496 C15.3098795,11.9154496 15.2630795,11.4344496 15.1434795,10.9846496 C14.7768795,9.60274968 13.1492796,9.1022497 12.0312796,10.0057497 C11.4241796,10.4984497 11.1537796,11.1341496 11.1576796,11.9180496 C11.1693796,14.0682495 11.1628796,16.2184494 11.1615796,18.3699494 C11.1615796,18.4596494 11.1381796,18.5493494 11.1251796,18.6403494 L7.22257977,18.6403494 C7.20957977,18.5714494 7.18357977,18.5038494 7.18357977,18.4362494 C7.19267977,14.5778495 7.20437977,10.7194496 7.21477977,6.86104979 C7.21477977,6.82594979 7.22127977,6.79084979 7.22647977,6.74144979 L11.1537796,6.74144979 L11.1537796,8.32354973 C11.1680796,8.32614973 11.1836796,8.33004973 11.1979796,8.33264973 C11.3214796,8.17144974 11.4384796,8.00634974 11.5684796,7.85034975 C12.2457796,7.03394978 13.1180796,6.5828498 14.1697795,6.4840498 C15.3423795,6.3735498 16.4525794,6.5568498 17.4223794,7.27444977 C18.3141794,7.93224975 18.8289793,8.84874971 19.0434793,9.91474967 C19.1747793,10.5686496 19.2540793,11.2433496 19.2618793,11.9102496 Z M1.06825,6.74079979 L5.01244985,6.74079979 C5.01634985,6.81359979 5.02284985,6.88899978 5.02284985,6.96439978 C5.02414985,10.7785996 5.02414985,14.5940995 5.02284985,18.4095994 C5.02284985,18.4862994 5.00334985,18.5629994 4.99424985,18.6396994 L1.09165,18.6396994 C1.08385,18.5486994 1.06825,18.4563994 1.06825,18.3640994 C1.06825,14.5771995 1.06825,10.7915996 1.06825,7.00469978 L1.06825,6.74079979 Z M3.04619992,1 C4.17719988,1 5.09239985,1.91649997 5.09239985,3.04619992 C5.09239985,4.17589988 4.17719988,5.09239985 3.04619992,5.09239985 C1.91519997,5.09239985 1,4.17589988 1,3.04619992 C1,1.91649997 1.91519997,1 3.04619992,1 Z" id="Combined-Shape" fill="#687483"></path>
    </g>
</svg>