<?xml version="1.0" encoding="UTF-8"?>
<svg width="249px" height="228px" viewBox="0 0 249 228" version="1.1" xmlns="http://www.w3.org/2000/svg" xmlns:xlink="http://www.w3.org/1999/xlink">
    <!-- Generator: sketchtool 55 (78076) - https://sketchapp.com -->
    <title>47AE11D4-8F14-4E6A-AAE1-82B19C849908</title>
    <desc>Created with sketchtool.</desc>
    <defs>
        <polygon id="path-1" points="60.4291066 25.934629 37.341126 16.7642332 0.158189032 1.99730035 0.116961296 1.39846643 55.4042521 0.205250883 60.4035633 25.8117456"></polygon>
        <polygon id="path-3" points="23.2345183 14.8038869 0.146537715 5.63349117 7.96994883 0.344162544 23.208975 14.6810035"></polygon>
        <polygon id="path-5" points="0 0.147371025 27.3138235 23.315788 45.6140091 10.1418869 0.566881376 0.0654487633"></polygon>
        <polygon id="path-7" points="0 10.8328834 56.4725883 13.0136184 74.0826574 0.33614841"></polygon>
        <polygon id="path-9" points="0.396144772 23.1973569 6.43287127 52.2557173 6.46020705 52.3959647 26.658661 32.7248269 59.1882413 1.04539929 58.9682107 0.398480565"></polygon>
        <polygon id="path-11" points="0.159085287 21.9800989 0.186421069 22.1203463 20.384875 2.44920848 9.83998518 0.298749117"></polygon>
        <polygon id="path-13" points="43.2824014 0.402042403 0.428858085 30.5779293 30.8836077 41.4851661 43.9142612 0.241314488"></polygon>
        <polygon id="path-15" points="0.0112031893 22.4916678 19.6432239 27.0984594 77.9719566 0.241314488"></polygon>
    </defs>
    <g id="Website" stroke="none" stroke-width="1" fill="none" fill-rule="evenodd">
        <g id="Subscrition-thanks" transform="translate(-515.000000, -65.000000)">
            <g id="Group" transform="translate(515.000000, 65.000000)">
                <g id="Group-29">
                    <g id="Group-3" transform="translate(0.448128, 39.384127)">
                        <mask id="mask-2" fill="white">
                            <use xlink:href="#path-1"></use>
                        </mask>
                        <g id="Clip-2"></g>
                        <polygon id="Fill-1" fill="#00BAF5" mask="url(#mask-2)" points="60.4291066 25.934629 37.341126 16.7642332 0.158189032 1.99730035 0.116961296 1.39846643 55.4042521 0.205250883 60.4035633 25.8117456"></polygon>
                    </g>
                    <g id="Group-6" transform="translate(37.642716, 50.514869)">
                        <mask id="mask-4" fill="white">
                            <use xlink:href="#path-3"></use>
                        </mask>
                        <g id="Clip-5"></g>
                        <polygon id="Fill-4" mask="url(#mask-4)" points="23.2345183 14.8038869 0.146537715 5.63349117 7.96994883 0.344162544 23.208975 14.6810035"></polygon>
                    </g>
                    <g id="Group-9" transform="translate(0.000000, 40.719816)">
                        <mask id="mask-6" fill="white">
                            <use xlink:href="#path-5"></use>
                        </mask>
                        <g id="Clip-8"></g>
                        <polygon id="Fill-7" fill="#00DCF7" mask="url(#mask-6)" points="0 0.147371025 27.3138235 23.315788 45.6140091 10.1418869 0.566881376 0.0654487633"></polygon>
                    </g>
                    <g id="Group-12" transform="translate(0.000000, 30.034304)">
                        <mask id="mask-8" fill="white">
                            <use xlink:href="#path-7"></use>
                        </mask>
                        <g id="Clip-11"></g>
                        <polygon id="Fill-10" fill="#00DCF7" mask="url(#mask-8)" points="0 10.8328834 56.4725883 13.0136184 74.0826574 0.33614841"></polygon>
                    </g>
                    <path d="M66.6281449,65.5381654 C66.5940872,65.5381654 66.5595814,65.5346035 66.5250755,65.5261442 C65.6628781,65.3244551 64.7854443,65.1450276 63.9165249,64.9932042 C63.6727435,64.9509074 63.5100732,64.7198332 63.5530935,64.4776283 C63.5956656,64.2354233 63.8273476,64.0738049 64.0720252,64.116547 C64.9570772,64.2710417 65.8519879,64.4535859 66.7307661,64.6597272 C66.9714106,64.7158261 67.1206371,64.9558049 67.0637249,65.1948933 C67.014879,65.4001442 66.8311467,65.5381654 66.6281449,65.5381654 M72.2024037,67.2042148 C72.1513172,67.2042148 72.0993344,67.1953102 72.0482478,67.1770558 C71.2133862,66.8725187 70.3641844,66.5884622 69.5239452,66.3329004 C69.2873339,66.2607731 69.15424,66.0118898 69.2263885,65.7768085 C69.2989852,65.5417272 69.551281,65.4099392 69.7860999,65.4816212 C70.6420235,65.7416353 71.5069097,66.0305894 72.3570077,66.3409145 C72.5895859,66.4255081 72.7083397,66.6815152 72.6236436,66.9121442 C72.5564245,67.0924622 72.3852398,67.2042148 72.2024037,67.2042148 M77.5404993,69.5140664 C77.4723839,69.5140664 77.4033723,69.4989286 77.3383938,69.4664269 C76.5483449,69.0688367 75.7376821,68.6877201 74.9297081,68.3337625 C74.7038518,68.2344763 74.6012306,67.9713456 74.701163,67.7465046 C74.8010955,67.5216636 75.0650426,67.4205965 75.2917952,67.5189922 C76.1141093,67.879183 76.938664,68.2669781 77.7435011,68.6716919 C77.9639799,68.7829993 78.052261,69.0505823 77.9406773,69.2696353 C77.8618068,69.4250205 77.7040659,69.5140664 77.5404993,69.5140664 M82.5761088,72.4178544 C82.4914127,72.4178544 82.4058204,72.393812 82.3300868,72.3443915 C81.5920207,71.8613173 80.8302038,71.3902643 80.0670426,70.9454799 C79.8537338,70.8212608 79.7820334,70.548335 79.907061,70.3364057 C80.0325367,70.1244763 80.3072389,70.0523491 80.5205477,70.1774587 C81.2971528,70.6302572 82.0719653,71.1088792 82.8234753,71.600858 C83.0300621,71.7357625 83.0869743,72.0122502 82.9507435,72.2170558 C82.864703,72.3470629 82.7217503,72.4178544 82.5761088,72.4178544 M87.2500794,75.8679392 C87.1488026,75.8679392 87.0470776,75.8341018 86.9632777,75.7642007 C86.2839164,75.2014304 85.5808042,74.6484551 84.8732108,74.1217484 C84.6746902,73.9743774 84.6348069,73.6952184 84.7831371,73.4984269 C84.9319155,73.3025258 85.2128915,73.2620099 85.4105157,73.4093809 C86.1306567,73.9454375 86.8458683,74.5077625 87.5373292,75.0807731 C87.7273353,75.2383845 87.7533267,75.5188792 87.5942414,75.7076565 C87.5059602,75.8136212 87.378692,75.8679392 87.2500794,75.8679392 M91.5041544,79.818017 C91.3858487,79.818017 91.2679912,79.7717131 91.1801582,79.6799958 C90.5675678,79.0433173 89.9316748,78.4150982 89.2890598,77.8140382 C89.1093607,77.6452961 89.1008463,77.3634657 89.2706866,77.1844834 C89.4400788,77.0059463 89.7241917,76.9970417 89.904339,77.166229 C90.5572609,77.7784198 91.2048052,78.4168792 91.8277025,79.0651336 C91.9988873,79.2432254 91.9926135,79.5250558 91.8133624,79.6942431 C91.7268738,79.7770558 91.6152901,79.818017 91.5041544,79.818017 M95.2778367,84.2244551 C95.142054,84.2244551 95.0076158,84.1634587 94.9197828,84.0476989 C94.3883035,83.3486883 93.8290402,82.6532396 93.2567813,81.9787166 C93.0972479,81.7908297 93.1209987,81.510335 93.3105567,81.351388 C93.5001146,81.1928862 93.782435,81.2173739 93.9419684,81.4048155 C94.5245342,82.0909145 95.0941044,82.7997201 95.6349944,83.5111972 C95.7842208,83.7070982 95.7447856,83.9862572 95.5471614,84.1345187 C95.4664984,84.1955152 95.3719435,84.2244551 95.2778367,84.2244551 M98.5056996,89.0378332 C98.3515437,89.0378332 98.2014209,88.9585823 98.1185173,88.8169993 C97.6735267,88.0592184 97.2007521,87.3032184 96.7127412,86.5690346 C96.5765104,86.3637837 96.6334226,86.0877413 96.8400094,85.9519463 C97.0470443,85.8174869 97.3244353,85.8731406 97.4611142,86.0783915 C97.9576396,86.8263774 98.4393767,87.5966247 98.8919855,88.3682078 C99.016565,88.5801371 98.9444165,88.8535081 98.7311077,88.9768367 C98.6598555,89.0182431 98.5823294,89.0378332 98.5056996,89.0378332 M108.844003,90.4768155 C108.830111,90.4768155 108.816219,90.4763703 108.80143,90.4745894 C107.927134,90.3931124 107.034463,90.3392396 106.147619,90.3143067 C105.900253,90.307183 105.704869,90.1019322 105.712039,89.8566106 C105.718761,89.6108438 105.923555,89.4291901 106.172714,89.4238473 C107.079276,89.4496707 107.992112,89.5048792 108.885678,89.5885823 C109.132149,89.611289 109.312744,89.8285611 109.289441,90.0734375 C109.267931,90.3040664 109.072548,90.4768155 108.844003,90.4768155 M100.343023,90.5502784 C100.117166,90.5502784 99.9235752,90.3815364 99.8980319,90.154024 C99.8711443,89.9095929 100.048603,89.6896495 100.294625,89.6624905 C101.192672,89.5640947 102.104164,89.4937484 103.003108,89.4518968 C103.265262,89.4327519 103.45975,89.6308792 103.471849,89.8766459 C103.483052,90.1215223 103.291702,90.330335 103.044784,90.3414657 C102.164213,90.3819816 101.271991,90.4518827 100.392765,90.5476071 C100.376184,90.549388 100.359155,90.5502784 100.343023,90.5502784 M114.585413,91.4269357 C114.550011,91.4269357 114.514609,91.4229286 114.478759,91.4144693 C113.624179,91.2083279 112.748538,91.0280099 111.876482,90.8793032 C111.6327,90.8374516 111.469134,90.6072678 111.51081,90.3646177 C111.552934,90.122858 111.781031,89.9594587 112.028845,90.0017555 C112.920619,90.154024 113.815978,90.3383491 114.690723,90.5489428 C114.930919,90.6068226 115.078353,90.8476919 115.020097,91.0867802 C114.970355,91.2902502 114.78707,91.4269357 114.585413,91.4269357 M94.6141598,91.5751972 C94.4138467,91.5751972 94.2314588,91.4407378 94.1799241,91.2386035 C94.119875,91.0004057 94.2655165,90.7582007 94.5052648,90.6980947 C95.377321,90.4799322 96.2699911,90.2862572 97.1590762,90.1219675 C97.4010651,90.0765541 97.635884,90.2368367 97.681593,90.4785965 C97.7264057,90.7203562 97.5659761,90.9527661 97.3226428,90.9977343 C96.452379,91.158017 95.5780822,91.34813 94.723951,91.5618403 C94.6872045,91.5707449 94.6504581,91.5751972 94.6141598,91.5751972 M120.12651,93.1958332 C120.070494,93.1958332 120.01403,93.1851477 119.959359,93.1633314 C119.137493,92.8347519 118.296806,92.5302148 117.461496,92.2577343 C117.226229,92.1811548 117.098064,91.9296 117.175142,91.6958544 C117.25222,91.4625541 117.505412,91.3347731 117.740679,91.4117979 C118.59481,91.6900664 119.453871,92.001282 120.293662,92.3374304 C120.523551,92.4291477 120.634687,92.6887166 120.542373,92.9166742 C120.471569,93.0903138 120.303521,93.1958332 120.12651,93.1958332 M89.0815768,93.3721442 C88.9050145,93.3721442 88.7374148,93.2675152 88.6666106,93.0943208 C88.5734001,92.8663633 88.6840876,92.6067943 88.9130808,92.5141866 C89.7492869,92.1775929 90.607003,91.8628155 91.4629267,91.5805399 C91.6968493,91.5044057 91.9513857,91.6295152 92.0298081,91.8623703 C92.1073341,92.0961159 91.980514,92.3476707 91.7456952,92.4255859 C90.9081447,92.7020735 90.0683537,93.0097272 89.2500727,93.3396424 C89.194953,93.3619039 89.1380408,93.3721442 89.0815768,93.3721442 M101.123661,94.2042784 C100.949787,94.2042784 100.784428,94.1032113 100.711383,93.9344693 C100.589941,93.6521936 100.466258,93.3716989 100.339886,93.0929852 C100.103274,92.5738473 99.8523229,92.0489216 99.5937533,91.5324551 C99.4830658,91.3125117 99.5735876,91.0453739 99.7954107,90.9354021 C100.016786,90.8258756 100.285662,90.9162572 100.39635,91.1362007 C100.659401,91.662017 100.91573,92.197183 101.156374,92.7265611 C101.285435,93.0110629 101.411807,93.2964551 101.53549,93.5845187 C101.632734,93.8102502 101.527424,94.0716 101.299775,94.1686601 C101.241967,94.1931477 101.182366,94.2042784 101.123661,94.2042784 M125.359296,95.7274092 C125.283563,95.7274092 125.206485,95.7082643 125.136129,95.6677484 C124.368486,95.2287519 123.578885,94.810236 122.789733,94.422441 C122.567909,94.3138049 122.47694,94.0471124 122.586731,93.8262784 C122.696074,93.606335 122.96495,93.5155081 123.187222,93.6245894 C123.992955,94.0199534 124.799137,94.4478191 125.58336,94.8966106 C125.797565,95.0190488 125.871506,95.2915293 125.747823,95.5043491 C125.664919,95.6472678 125.5139,95.7274092 125.359296,95.7274092 M83.8590981,95.9237555 C83.7049422,95.9237555 83.5548194,95.8449498 83.4719158,95.7029216 C83.3468883,95.4909922 83.4190368,95.2180664 83.6323455,95.0938473 C84.4093987,94.6428297 85.2142358,94.2105117 86.0240024,93.8098049 C86.2453774,93.6989428 86.514702,93.7897696 86.6249414,94.0097131 C86.7351808,94.2301018 86.6451072,94.4967943 86.4237322,94.6072113 C85.6309945,94.9985682 84.8440825,95.4215364 84.0849544,95.862759 C84.0137021,95.9041654 83.9357279,95.9237555 83.8590981,95.9237555 M79.1022239,99.2540735 C78.9758519,99.2540735 78.8503762,99.2015364 78.761647,99.0986883 C78.6007692,98.9121371 78.6222793,98.6311972 78.8100447,98.4709145 C79.4867174,97.8938968 80.2104434,97.332017 80.9606089,96.800858 C81.1622664,96.6588297 81.441898,96.7046883 81.5857469,96.9054869 C81.7291477,97.1053951 81.6825425,97.3836636 81.4808851,97.5261371 C80.7526778,98.0417131 80.0500137,98.5871194 79.3935068,99.1467731 C79.3092589,99.2189004 79.2052933,99.2540735 79.1022239,99.2540735 M103.014759,99.6730346 C102.815342,99.6730346 102.633851,99.5403562 102.580972,99.3391124 C102.36587,98.5083138 102.10999,97.6579251 101.820947,96.8119887 C101.741629,96.5786883 101.867553,96.3262431 102.101475,96.2469922 C102.33719,96.1686318 102.59083,96.2937413 102.670149,96.525706 C102.965913,97.3930134 103.228068,98.2647731 103.449443,99.1164975 C103.511285,99.3551406 103.366539,99.5977908 103.127239,99.6592325 C103.089596,99.6690276 103.051954,99.6730346 103.014759,99.6730346 M75.1515313,103.489989 C75.0614576,103.489989 74.9704877,103.46283 74.8916173,103.407176 C74.6899599,103.264257 74.6433546,102.986434 74.7872035,102.786081 C75.3007577,102.071042 75.8815311,101.36001 76.5151835,100.672575 C76.682335,100.490922 76.9655517,100.47801 77.1488358,100.644526 C77.3312238,100.810596 77.3433232,101.091982 77.1766197,101.27319 C76.5676144,101.934801 76.0092474,102.617339 75.5167552,103.303437 C75.4293703,103.424985 75.2913471,103.489989 75.1515313,103.489989 M103.930284,105.379543 C103.694121,105.379543 103.496048,105.195664 103.483052,104.958356 C103.437343,104.107522 103.344581,103.229084 103.207454,102.346194 C103.169811,102.103098 103.337411,101.876031 103.582089,101.838632 C103.826318,101.803459 104.05576,101.967748 104.093402,102.210844 C104.234562,103.122229 104.330462,104.030498 104.378411,104.910271 C104.391855,105.156038 104.202297,105.365741 103.954931,105.379098 C103.946416,105.379543 103.938798,105.379543 103.930284,105.379543 M72.6093036,108.661331 C72.5698683,108.661331 72.529985,108.655989 72.4901016,108.645303 C72.2516977,108.5803 72.1109857,108.335423 72.1768604,108.098116 C72.4148162,107.237487 72.7419493,106.372406 73.148401,105.527805 C73.2550554,105.305635 73.5234838,105.212582 73.7462032,105.318102 C73.9693707,105.424066 74.0639256,105.690314 73.9568232,105.912038 C73.5727778,106.708999 73.2649142,107.52377 73.0412985,108.334088 C72.9861788,108.53177 72.8055834,108.661331 72.6093036,108.661331 M103.530554,111.137699 C103.500529,111.137699 103.470505,111.135028 103.440032,111.128794 C103.197595,111.079819 103.041199,110.844293 103.090941,110.603423 C103.263918,109.764611 103.385361,108.893741 103.453476,108.014858 C103.472297,107.769982 103.692328,107.584766 103.934317,107.604801 C104.181235,107.623501 104.365864,107.837211 104.347042,108.082533 C104.276686,108.998816 104.149418,109.907084 103.968823,110.78196 C103.925354,110.992554 103.738933,111.137699 103.530554,111.137699 M72.3498377,114.388766 C72.140114,114.388766 71.9523485,114.24184 71.9102245,114.029911 C71.757413,113.260554 71.6794388,112.47695 71.6794388,111.70136 L71.679887,111.594505 C71.6807832,111.48854 71.6830239,111.380349 71.6866089,111.273494 C71.6951233,111.027282 71.8914032,110.822476 72.1495247,110.843402 C72.3968911,110.851861 72.5909303,111.057558 72.5824159,111.303324 C72.5788309,111.403056 72.5770384,111.503233 72.5761421,111.603854 L72.575694,111.70136 C72.575694,112.41907 72.6482906,113.144349 72.7894508,113.857607 C72.8374005,114.098476 72.6796596,114.332667 72.4367744,114.380752 C72.407198,114.386095 72.3780697,114.388766 72.3498377,114.388766 M101.496503,116.535664 C101.421666,116.535664 101.345932,116.516964 101.276024,116.478229 C101.060923,116.357127 100.984741,116.085536 101.106632,115.871381 C101.539523,115.110483 101.918191,114.318865 102.23188,113.518342 C102.321058,113.289049 102.581868,113.174625 102.811757,113.265006 C103.042543,113.354052 103.156816,113.61184 103.066742,113.841134 C102.737816,114.681282 102.340775,115.512081 101.886822,116.309932 C101.804367,116.454632 101.652451,116.535664 101.496503,116.535664 M74.7280507,119.618434 C74.5909237,119.618434 74.4555891,119.556547 74.3677561,119.438561 C73.8093892,118.69013 73.327652,117.897621 72.9355404,117.08196 C72.8293342,116.860236 72.9238891,116.594434 73.1470566,116.488469 C73.3688798,116.382505 73.6377563,116.476448 73.7444107,116.698618 C74.1114272,117.462632 74.5635879,118.20572 75.087449,118.908293 C75.234883,119.105529 75.1932071,119.384688 74.9946866,119.531169 C74.9140236,119.589939 74.820365,119.618434 74.7280507,119.618434 M97.9191006,121.076561 C97.8003468,121.076561 97.681593,121.029367 97.5933118,120.936759 C97.4234715,120.757777 97.4315378,120.475946 97.6116851,120.307204 C98.2439931,119.714604 98.8422434,119.069911 99.3903034,118.39049 C99.5453555,118.198151 99.8267796,118.167876 100.020371,118.321035 C100.213514,118.475084 100.244883,118.755134 100.089831,118.947028 C99.5157791,119.658505 98.8888486,120.334363 98.2269642,120.955013 C98.1400275,121.036045 98.02934,121.076561 97.9191006,121.076561 M78.9960177,123.510187 C78.9149066,123.510187 78.8328992,123.48837 78.7589582,123.442512 C77.9769756,122.958547 77.2330838,122.405572 76.5470005,121.799614 C76.3623719,121.636215 76.3457912,121.35483 76.510254,121.171395 C76.6738206,120.987515 76.9579335,120.969706 77.142562,121.134441 C77.7905545,121.707006 78.4941148,122.229706 79.2330772,122.686957 C79.443249,122.816964 79.5073312,123.091671 79.376478,123.300483 C79.2917819,123.435833 79.1456923,123.510187 78.9960177,123.510187 M93.1286169,124.327183 C92.9592246,124.327183 92.7974506,124.231904 92.721717,124.06895 C92.6173033,123.84589 92.7149951,123.581423 92.939507,123.477685 C93.7196971,123.118384 94.4868915,122.689183 95.2209245,122.202992 C95.4261669,122.066752 95.7049023,122.121515 95.8420293,122.326321 C95.9796045,122.530681 95.9240366,122.807169 95.717898,122.943854 C94.9462223,123.454978 94.1386964,123.906441 93.3168304,124.285777 C93.2558851,124.313826 93.1913547,124.327183 93.1286169,124.327183 M84.3972993,125.584066 C84.3722041,125.584066 84.3462127,125.58184 84.3202213,125.577388 C83.4235181,125.422448 82.5245742,125.180243 81.6498291,124.857006 C81.4176991,124.771522 81.2993934,124.514625 81.385882,124.284441 C81.4723706,124.053812 81.7304921,123.936271 81.9621741,124.022201 C82.7858325,124.326738 83.630553,124.554695 84.473481,124.69984 C84.7172624,124.742137 84.8803808,124.972766 84.8387049,125.214971 C84.8006141,125.431353 84.6115043,125.584066 84.3972993,125.584066 M87.5211966,125.758596 C87.2863777,125.758596 87.0887535,125.576498 87.0744134,125.340526 C87.0596252,125.094759 87.2478388,124.88372 87.4943089,124.869028 C88.3524732,124.817826 89.2178076,124.686929 90.0683537,124.480787 C90.3076538,124.422462 90.5514352,124.568498 90.6101399,124.808031 C90.6683965,125.047119 90.5209625,125.287989 90.2807661,125.346314 C89.3786854,125.564922 88.4595757,125.703388 87.5489805,125.757706 C87.5395698,125.758151 87.5306073,125.758596 87.5211966,125.758596" id="Fill-13" fill="#00DCF7"></path>
                    <g id="Group-17" transform="translate(105.758107, 0.203915)">
                        <mask id="mask-10" fill="white">
                            <use xlink:href="#path-9"></use>
                        </mask>
                        <g id="Clip-16"></g>
                        <polygon id="Fill-15" fill="#1CA1F2" mask="url(#mask-10)" points="0.396144772 23.1973569 6.43287127 52.2557173 6.46020705 52.3959647 26.658661 32.7248269 59.1882413 1.04539929 58.9682107 0.398480565"></polygon>
                    </g>
                    <g id="Group-20" transform="translate(112.031893, 30.479534)">
                        <mask id="mask-12" fill="white">
                            <use xlink:href="#path-11"></use>
                        </mask>
                        <g id="Clip-19"></g>
                        <polygon id="Fill-18" fill="#00BAF5" mask="url(#mask-12)" points="0.159085287 21.9800989 0.186421069 22.1203463 20.384875 2.44920848 9.83998518 0.298749117"></polygon>
                    </g>
                    <g id="Group-23" transform="translate(121.442571, 0.203915)">
                        <mask id="mask-14" fill="white">
                            <use xlink:href="#path-13"></use>
                        </mask>
                        <g id="Clip-22"></g>
                        <polygon id="Fill-21" fill="#00DCF7" mask="url(#mask-14)" points="43.2824014 0.402042403 0.428858085 30.5779293 30.8836077 41.4851661 43.9142612 0.241314488"></polygon>
                    </g>
                    <g id="Group-26" transform="translate(87.384876, 0.203915)">
                        <mask id="mask-16" fill="white">
                            <use xlink:href="#path-15"></use>
                        </mask>
                        <g id="Clip-25"></g>
                        <polygon id="Fill-24" fill="#00DCF7" mask="url(#mask-16)" points="0.0112031893 22.4916678 19.6432239 27.0984594 77.9719566 0.241314488"></polygon>
                    </g>
                    <path d="M80.0750192,52.9408813 C79.9226559,52.9408813 79.7738775,52.8638565 79.6900777,52.7244996 C79.5628094,52.513906 79.6318211,52.2400898 79.8437854,52.1136445 C80.6952278,51.6069731 81.5793835,51.2588035 82.4729499,51.0789307 C82.715835,51.0295102 82.9515501,51.1862311 83.0008441,51.4266551 C83.0501382,51.6679696 82.8932935,51.9026057 82.6504084,51.9515809 C81.8581188,52.1114184 81.0685181,52.4226339 80.3049087,52.8776587 C80.2327601,52.9204007 80.1534416,52.9408813 80.0750192,52.9408813 L80.0750192,52.9408813 Z M87.8589951,53.6203018 C87.7362082,53.6203018 87.6134212,53.570436 87.5251401,53.4720403 C87.1661899,53.0735597 86.7453981,52.7356304 86.2735198,52.4680473 C86.0274978,52.3282452 85.7680319,52.2093689 85.5031885,52.1154254 C85.2701622,52.0326127 85.1482715,51.7779413 85.2320713,51.5464219 C85.3149749,51.3149025 85.5735445,51.1946905 85.8043302,51.2766127 C86.1193639,51.3883654 86.4267794,51.529058 86.7180623,51.6946834 C87.2737405,52.009906 87.7702659,52.4083866 88.1928502,52.8785491 C88.3577611,53.0615385 88.3420767,53.3433689 88.1574481,53.5072134 C88.0723039,53.5829025 87.9652014,53.6203018 87.8589951,53.6203018 L87.8589951,53.6203018 Z M76.3138845,57.2355668 C76.2565242,57.2355668 76.1982676,57.224436 76.1418036,57.2008389 C75.9132585,57.1060049 75.8057079,56.8455456 75.9011591,56.6184784 C75.9737557,56.4457293 76.0512818,56.2738707 76.1337373,56.1042382 C76.452356,55.4470792 76.8646333,54.8161887 77.3584699,54.2289307 C77.5171071,54.0410438 77.7998756,54.0147753 77.9903298,54.173277 C78.1798877,54.3308883 78.2049829,54.611383 78.0463457,54.8001604 C77.5995625,55.3313194 77.2276167,55.8998777 76.940815,56.4911428 C76.8655296,56.6465279 76.7947254,56.8032488 76.7279544,56.9617505 C76.656254,57.1327187 76.4895506,57.2355668 76.3138845,57.2355668 L76.3138845,57.2355668 Z M107.720457,57.9189943 C107.640242,57.9189943 107.558235,57.8976233 107.484742,57.8522099 C107.27457,57.7226481 107.21004,57.4479413 107.340445,57.2391286 C107.81322,56.4813477 108.278376,55.7208954 108.740396,54.9635597 C108.869008,54.7534113 109.144607,54.6861816 109.356123,54.8139625 C109.567639,54.9412982 109.635306,55.2151145 109.507142,55.4252629 C109.04333,56.18527 108.576829,56.9483936 108.101814,57.7084007 C108.017118,57.844641 107.87058,57.9189943 107.720457,57.9189943 L107.720457,57.9189943 Z M89.5197559,59.0209378 C89.5134821,59.0209378 89.5076565,59.0204926 89.5013827,59.0204926 C89.2540163,59.0106975 89.0617695,58.8032205 89.0716283,58.5578989 C89.0770059,58.4225491 89.0796946,58.2880898 89.0796946,58.1536304 C89.0801428,57.4047541 88.996791,56.6910509 88.8323282,56.032111 C88.7727272,55.7934678 88.919265,55.5521534 89.1594613,55.4929378 C89.3960727,55.4337223 89.6425429,55.5788671 89.7021438,55.8179555 C89.8845318,56.5472417 89.9763979,57.3330721 89.9759498,58.1536304 C89.9759498,58.2996657 89.973261,58.4465915 89.9669872,58.5935173 C89.9575765,58.8330509 89.7586079,59.0209378 89.5197559,59.0209378 L89.5197559,59.0209378 Z M104.495283,62.7381604 C104.403417,62.7381604 104.311103,62.7105562 104.230888,62.6522311 C104.031471,62.5070862 103.988003,62.2288177 104.134092,62.0302452 C104.630618,61.3561675 105.129384,60.6438 105.658174,59.8535173 C105.795301,59.6482664 106.074036,59.593058 106.279727,59.7292982 C106.485866,59.8650933 106.541882,60.1415809 106.404755,60.3463866 C105.868346,61.1482452 105.361962,61.870853 104.85737,62.5560615 C104.769537,62.675383 104.633754,62.7381604 104.495283,62.7381604 L104.495283,62.7381604 Z M75.5802997,62.9122452 C75.3575803,62.9122452 75.1644373,62.747065 75.1362053,62.5217788 C75.0730193,62.0128813 75.0412022,61.4990862 75.0412022,60.9937505 C75.0412022,60.5783512 75.0622642,60.161171 75.1052845,59.7551216 C75.1308278,59.5106905 75.3477215,59.3330438 75.5977767,59.3584219 C75.8437987,59.3842452 76.0221535,59.602853 75.9966102,59.8472841 C75.957175,60.2235032 75.9374574,60.6090721 75.9374574,60.9937505 C75.9374574,61.4625774 75.9670338,61.9398636 76.0257385,62.4122523 C76.0557631,62.6566834 75.8818896,62.878853 75.6358675,62.9086834 C75.6174943,62.9113548 75.5986729,62.9122452 75.5802997,62.9122452 L75.5802997,62.9122452 Z M87.9235255,64.5328813 C87.8504807,64.5328813 87.7765397,64.5150721 87.707528,64.4776728 C87.4906343,64.3587965 87.4117638,64.0880968 87.5314139,63.8726057 C87.6649559,63.6321816 87.7922241,63.3881958 87.9127704,63.1410933 C88.1655144,62.6246269 88.3824081,62.0752134 88.5580741,61.5079908 C88.6311189,61.2733548 88.8811741,61.1406763 89.1182336,61.2132488 C89.354845,61.2858212 89.4874907,61.5347046 89.4148941,61.7697859 C89.2253361,62.380641 88.9909654,62.9727965 88.7189519,63.5297788 C88.5912356,63.7911286 88.4567973,64.0489166 88.3165334,64.3022523 C88.234526,64.4496233 88.0812664,64.5328813 87.9235255,64.5328813 L87.9235255,64.5328813 Z M100.728323,67.1445986 C100.612706,67.1445986 100.497089,67.1005208 100.409704,67.0123654 C100.235382,66.8373901 100.237175,66.5560049 100.413289,66.3828106 C101.016917,65.7888742 101.623233,65.1388389 102.213866,64.4514042 C102.37564,64.2639625 102.658408,64.2430367 102.845725,64.4019837 C103.033939,64.5618212 103.056345,64.8427611 102.895916,65.0297576 C102.288703,65.7358919 101.665806,66.4041816 101.043356,67.0159272 C100.95642,67.1014113 100.842147,67.1445986 100.728323,67.1445986 L100.728323,67.1445986 Z M77.6040438,68.2830509 C77.460643,68.2830509 77.3199309,68.2149307 77.2329942,68.0884855 C76.7167512,67.333376 76.2798269,66.5105915 75.936113,65.6428389 C75.8455912,65.4139908 75.9580713,65.1557576 76.1884088,65.065376 C76.4205389,64.9758848 76.6795566,65.0880827 76.7696303,65.3164855 C77.0895934,66.1227965 77.4947007,66.8872558 77.9746453,67.5876021 C78.1135649,67.7910721 78.0602377,68.0680049 77.8554434,68.2064714 C77.7783654,68.2585633 77.6909806,68.2830509 77.6040438,68.2830509 L77.6040438,68.2830509 Z M45.6144572,68.5395032 C45.399356,68.5395032 45.209798,68.3854537 45.1730516,68.1681816 C45.1313757,67.9259767 45.2962867,67.6957929 45.5405162,67.6548318 C46.3740335,67.5154749 47.2590854,67.4446834 48.1723694,67.4446834 L48.297397,67.4455739 C48.5447634,67.4478 48.7432839,67.6499343 48.7405952,67.8952558 C48.7379064,68.1396869 48.5375934,68.3360332 48.2924676,68.3360332 L48.2875382,68.3360332 L48.16744,68.3351428 C47.3092757,68.3351428 46.474414,68.401482 45.6897427,68.53327 C45.6641994,68.537277 45.6391042,68.5395032 45.6144572,68.5395032 L45.6144572,68.5395032 Z M84.3250611,69.0510721 C84.2040667,69.0510721 84.0830722,69.002542 83.9947911,68.9063724 C83.8276395,68.725164 83.839739,68.4433336 84.0230231,68.2777081 C84.6705675,67.6886693 85.2755397,67.0515456 85.8222553,66.3845915 C85.9782037,66.1949237 86.2609722,66.1655385 86.4527708,66.3204784 C86.6445694,66.4758636 86.6736977,66.7563583 86.5173012,66.9469166 C85.9436979,67.6477081 85.3078049,68.3159979 84.6275472,68.9339767 C84.5419549,69.0123371 84.433508,69.0510721 84.3250611,69.0510721 L84.3250611,69.0510721 Z M54.0450812,69.1557011 C54.0083347,69.1557011 53.970692,69.151694 53.9330493,69.1418989 C53.0381386,68.9126057 52.1674267,68.7300615 51.3442163,68.599164 C51.0995387,68.5608742 50.9332834,68.3324714 50.9722705,68.089376 C51.0112576,67.8467258 51.2433876,67.6806551 51.4853765,67.7202806 C52.3363708,67.8556304 53.2348666,68.0430721 54.156665,68.279489 C54.3964132,68.3409307 54.5411584,68.5835809 54.4788687,68.8217788 C54.4268859,69.0225774 54.244498,69.1557011 54.0450812,69.1557011 L54.0450812,69.1557011 Z M96.1489071,70.6948601 C95.9938549,70.6948601 95.8437322,70.6156092 95.7608286,70.4726905 C95.6366972,70.2598707 95.7101902,69.9878353 95.923947,69.8645067 C96.4926209,69.5381534 97.0438178,69.1815244 97.5627495,68.8048601 C97.7442412,68.6735173 97.9234922,68.5395032 98.1005026,68.4032629 C98.2967825,68.2532205 98.5773104,68.2879484 98.7292256,68.482959 C98.8806927,68.6770792 98.8448425,68.9566834 98.6490108,69.1076163 C98.4652785,69.2487541 98.2797536,69.3876657 98.0915401,69.5243512 C97.5466169,69.91927 96.9680843,70.2932629 96.3729708,70.6351993 C96.3021667,70.6757152 96.2250887,70.6948601 96.1489071,70.6948601 L96.1489071,70.6948601 Z M40.2938386,70.7571922 C40.154919,70.7571922 40.0182401,70.6939696 39.9304071,70.5737576 C39.7852138,70.3751852 39.8291303,70.0964714 40.0298915,69.952217 C40.7890196,69.4032488 41.5857904,68.9433265 42.3986938,68.5840261 C42.6245501,68.4856304 42.9059742,68.5777929 43.0063548,68.8012982 C43.1076316,69.0248035 43.024728,69.2803654 42.799768,69.3814325 L42.6151394,68.9758283 L42.7952867,69.3836587 C42.7908054,69.3858848 42.7571958,69.4001322 42.7522664,69.4023583 C42.0074784,69.731383 41.2653792,70.1601392 40.5564413,70.6721534 C40.4771228,70.729588 40.3848085,70.7571922 40.2938386,70.7571922 L40.2938386,70.7571922 Z M59.5790086,70.9579908 C59.5270258,70.9579908 59.475043,70.9495314 59.4239564,70.9308318 C58.6657246,70.6534537 57.7829133,70.3328883 56.9023426,70.033694 C56.66842,69.9539979 56.5429443,69.7011074 56.6231591,69.4686975 C56.703374,69.2353972 56.9592548,69.1134042 57.1922811,69.1913194 C58.0818144,69.4931852 58.9704513,69.8159767 59.7331645,70.0951357 C59.9657427,70.1797293 60.0849446,70.4357364 59.9993522,70.6668106 C59.9325812,70.8466834 59.7613965,70.9579908 59.5790086,70.9579908 L59.5790086,70.9579908 Z M79.4978309,72.2518283 C79.329335,72.2518283 79.1675609,72.1565491 79.0918274,71.9944855 C78.9869655,71.7714254 79.0842092,71.506959 79.308273,71.4027753 C79.5784939,71.2776657 79.8460261,71.1458777 80.1113176,71.0074113 C79.87381,70.8426763 79.6416799,70.6672558 79.4167198,70.483376 C79.2258175,70.3266551 79.1989298,70.0457152 79.3562226,69.8564926 C79.5144117,69.66727 79.7971801,69.6405562 79.9876344,69.7963866 C80.3075975,70.0586269 80.6441413,70.301277 80.9887514,70.5181039 C81.1962344,70.3952205 81.4010287,70.26833 81.6026861,70.1378777 C81.8097211,70.0034184 82.0875602,70.0621887 82.2228947,70.26833 C82.3577811,70.4744714 82.2990764,70.7500686 82.0915933,70.8840827 C82.0212373,70.9299413 81.9504331,70.9749095 81.8791808,71.0194325 C81.9728395,71.0661816 82.0669463,71.1124855 82.1615012,71.1565633 C82.385565,71.2611922 82.4814643,71.5265491 82.3766024,71.749164 C82.2708443,71.972224 82.0037603,72.0661675 81.7801446,71.962429 C81.5090275,71.8355385 81.2419434,71.6975173 80.9811332,71.5510367 C80.5572045,71.7874537 80.1243133,72.0073972 79.6869408,72.2099767 C79.6255473,72.2380261 79.561465,72.2518283 79.4978309,72.2518283 L79.4978309,72.2518283 Z M90.7395592,72.7852134 C90.5329723,72.7852134 90.3469994,72.6422947 90.3017385,72.4339272 C90.2497557,72.1935032 90.4039116,71.9561958 90.6454524,71.9045491 C91.4852434,71.7251216 92.3308602,71.4766834 93.1581037,71.1668035 C93.3897856,71.0795385 93.6483552,71.1961887 93.735292,71.4263724 C93.823125,71.6565562 93.7057155,71.9134537 93.4740336,71.9998283 C92.6055624,72.3257364 91.7169254,72.586641 90.8345622,72.7749731 C90.802297,72.7820968 90.77048,72.7852134 90.7395592,72.7852134 L90.7395592,72.7852134 Z M65.0824633,72.8533336 C65.0403393,72.8533336 64.997319,72.8475456 64.9547469,72.8350792 C64.1803825,72.6062311 63.3379026,72.3324148 62.3784615,71.9976021 C62.144987,71.9165703 62.0222001,71.6618989 62.1042074,71.4303795 C62.1862148,71.1979696 62.4411994,71.0755314 62.6755701,71.1578989 C63.6211193,71.4878141 64.4501553,71.7571781 65.2097315,71.9811286 C65.446791,72.0510297 65.5821255,72.2990226 65.5117695,72.5345491 C65.453961,72.728224 65.2760544,72.8533336 65.0824633,72.8533336 L65.0824633,72.8533336 Z M87.3745692,73.1516375 C86.5208862,73.1516375 85.6793026,73.0786198 84.8735693,72.9352558 C84.6297879,72.8916233 84.4680138,72.6605491 84.5114822,72.4183442 C84.5553987,72.1765845 84.7897694,72.0145208 85.0322064,72.0585986 C85.7855089,72.193058 86.5737653,72.2611781 87.3745692,72.2611781 L87.6223838,72.2589519 L87.6291057,72.2589519 C87.8737833,72.2589519 88.0736482,72.4539625 88.0772333,72.6975032 C88.0812664,72.94327 87.8836422,73.1454042 87.6362757,73.1494113 L87.3745692,73.1516375 Z M73.9222277,73.8479767 C73.698612,73.8479767 73.5050209,73.6814608 73.4776852,73.4557293 C73.4481087,73.2117435 73.6233266,72.9900191 73.8689005,72.9601887 C74.7270648,72.8577859 75.5915029,72.6877081 76.438464,72.4552982 C76.6777641,72.3894042 76.9237862,72.5287611 76.9896609,72.7656233 C77.0559838,73.0024855 76.9157199,73.2478071 76.677316,73.3132558 C75.7877828,73.5576869 74.8785319,73.7366693 73.9764511,73.8448601 C73.9580779,73.8470862 73.9401528,73.8479767 73.9222277,73.8479767 L73.9222277,73.8479767 Z M70.7916085,73.9374678 C70.7826459,73.9374678 70.7732353,73.9370226 70.7638246,73.9365774 C69.8814614,73.8827046 68.9914801,73.7700615 68.042794,73.5915244 C67.7999088,73.546111 67.6403754,73.3128106 67.6860844,73.0714961 C67.7322416,72.8297364 67.9661642,72.6712346 68.2094974,72.7166481 C69.1205408,72.8876163 69.9742238,72.9958071 70.8189443,73.0478989 C71.0658626,73.0630367 71.253628,73.2736304 71.2383917,73.5193972 C71.2240516,73.7553689 71.0268755,73.9374678 70.7916085,73.9374678 L70.7916085,73.9374678 Z M36.2763749,74.914747 C36.1867494,74.914747 36.0953314,74.8880332 36.0169091,74.8319343 C35.8148035,74.689906 35.7681983,74.4116375 35.911151,74.2112841 C36.4636922,73.4405915 37.0431212,72.7268883 37.6346496,72.0897647 C37.8018012,71.9085562 38.0859141,71.8983159 38.2678538,72.0643866 C38.4493455,72.2313477 38.4609968,72.5127329 38.2933971,72.6934961 C37.727412,73.3030155 37.1717338,73.9873336 36.6415989,74.7277505 C36.554214,74.8497435 36.4161907,74.914747 36.2763749,74.914747 L36.2763749,74.914747 Z M33.4052216,79.9413901 C33.3438281,79.9413901 33.2815384,79.9289237 33.2219374,79.9022099 C32.9960811,79.8020332 32.8952524,79.5384572 32.9965292,79.3140615 C33.3693714,78.4881604 33.7803044,77.6733901 34.218125,76.8915668 C34.3382232,76.6769661 34.6106847,76.5986057 34.8271304,76.7192629 C35.0440241,76.8385845 35.1219983,77.1097293 35.001452,77.3247753 C34.5761789,78.0843371 34.1768973,78.8759555 33.8143621,79.6782594 C33.7399729,79.8434396 33.5764063,79.9413901 33.4052216,79.9413901 L33.4052216,79.9413901 Z M31.5065051,85.4052488 C31.4706549,85.4052488 31.4343565,85.4007965 31.3976101,85.3918919 C31.1578618,85.3322311 31.0117722,85.0904714 31.0713732,84.8518283 C31.2909557,83.9773972 31.5486291,83.1038565 31.8367751,82.2543583 C31.9160937,82.021058 32.1697339,81.8946127 32.4050008,81.9747541 C32.6389234,82.0535597 32.7652954,82.3060049 32.686425,82.5388601 C32.405449,83.3652064 32.1544975,84.2164855 31.9411888,85.0677647 C31.8905504,85.2698989 31.7072662,85.4052488 31.5065051,85.4052488 L31.5065051,85.4052488 Z M30.5793291,91.1122028 C30.5676778,91.1122028 30.5560265,91.1117576 30.5448233,91.1108671 C30.297905,91.0921675 30.1132765,90.878012 30.1320978,90.6331357 C30.2006613,89.7355527 30.3055232,88.8317364 30.4435465,87.9457293 C30.4816373,87.7026339 30.7119749,87.5374537 30.9553082,87.5739625 C31.1999858,87.6118071 31.3675855,87.8388742 31.3294947,88.0819696 C31.1950564,88.94527 31.0924352,89.8263795 31.0256642,90.7008106 C31.0077391,90.934111 30.8110111,91.1122028 30.5793291,91.1122028 L30.5793291,91.1122028 Z M30.6124906,96.893065 C30.3826011,96.893065 30.1872175,96.7189802 30.1666036,96.4870155 C30.0868369,95.5921039 30.0411279,94.6833901 30.0294766,93.7862523 C30.0263397,93.5400403 30.2248602,93.3383512 30.4726748,93.3352346 C30.7021161,93.343694 30.9225948,93.5293548 30.9257317,93.7751216 C30.9369349,94.6499979 30.9812996,95.5360049 31.0592738,96.4086551 C31.081232,96.6535314 30.8988441,96.8699131 30.6523739,96.8912841 C30.6389301,96.8926198 30.6254863,96.893065 30.6124906,96.893065 L30.6124906,96.893065 Z M31.6033006,102.590224 C31.404332,102.590224 31.2223922,102.457546 31.1699613,102.257192 C30.9423125,101.388994 30.7464807,100.499871 30.5864992,99.6151993 C30.5430308,99.3729943 30.7048048,99.1414749 30.9485862,99.0978424 C31.1932639,99.0528742 31.425394,99.2158283 31.4688624,99.457588 C31.6243626,100.320443 31.8157131,101.18686 32.0375362,102.032796 C32.0993778,102.270549 31.955977,102.51409 31.7166769,102.575977 C31.6785861,102.585327 31.6404952,102.590224 31.6033006,102.590224 L31.6033006,102.590224 Z M33.5495187,108.038054 C33.3792302,108.038054 33.217008,107.941885 33.1417226,107.778486 C32.7679842,106.966387 32.4211334,106.123567 32.1114773,105.272288 C32.0267812,105.041213 32.1473275,104.786097 32.3799057,104.701948 C32.6133802,104.61691 32.8697091,104.738012 32.9544052,104.969531 C33.255547,105.797659 33.592987,106.618217 33.9568666,107.407609 C34.0594878,107.631114 33.9604516,107.895581 33.7354916,107.997984 C33.6749944,108.025143 33.6113603,108.038054 33.5495187,108.038054 L33.5495187,108.038054 Z M36.2813043,112.827835 C36.1387998,112.827835 35.9994321,112.761051 35.9120472,112.635941 C35.4522683,111.97344 35.0113108,111.283334 34.6017222,110.583878 C34.4775909,110.371503 34.5501875,110.098577 34.7639444,109.975249 C34.9777012,109.851475 35.2524034,109.923602 35.3765348,110.135977 C35.774472,110.815842 36.202882,111.486804 36.6496652,112.129715 C36.7903772,112.332295 36.7392907,112.609228 36.5353927,112.749475 C36.4578666,112.802457 36.3691373,112.827835 36.2813043,112.827835 L36.2813043,112.827835 Z" id="Fill-27" fill="#1CA1F2"></path>
                </g>
                <g id="Group-19" transform="translate(107.000000, 84.000000)">
                    <polygon id="Fill-1" fill="#00DCF7" points="77.1149449 155.443484 93.3504646 155.443484 93.3504646 66.7007542 77.1149449 66.7007542"></polygon>
                    <polygon id="Fill-2" fill="#1CA1F2" points="93.3502409 87.5545462 77.1147213 81.057015 77.1147213 66.7005864 93.3502409 66.7005864"></polygon>
                    <g id="Group-18" transform="translate(0.000000, 0.002797)">
                        <path d="M141.444243,24.3243443 L141.444243,71.6432853 L46.5060622,71.6432853 L46.5060622,0.310829112 L117.44848,0.310829112 C126.760661,0.310829112 134.833417,5.61870304 138.814448,13.3763649 C140.496086,16.657291 141.444243,20.3806331 141.444243,24.3243443" id="Fill-3" fill="#00DCF7"></path>
                        <path d="M70.5021614,24.3243443 L70.5021614,71.6432853 L22.5039252,71.6432853 L22.5039252,24.3243443 C22.5039252,21.7190675 22.9193031,19.2111111 23.6857677,16.8592028 C24.8670512,13.2270285 26.893626,9.98469501 29.5301299,7.34697811 C33.8745472,3.00056206 39.8754449,0.310829112 46.4991299,0.310829112 C57.149689,0.310829112 66.1829016,7.2558102 69.3203189,16.8592028 C70.0862244,19.2111111 70.5021614,21.7190675 70.5021614,24.3243443" id="Fill-9" fill="#1CA1F2"></path>
                        <path d="M81.1629512,71.6413836 L4.94137638,71.6413836 C2.21206929,71.6413836 -0.000111811024,69.4281848 -0.000111811024,66.6981813 L81.1629512,66.6981813 L81.1629512,71.6413836 Z" id="Fill-10" fill="#00DCF7"></path>
                        <path d="M70.1492522,34.1242839 L70.1492522,60.7972034 L28.7191011,60.7972034 L28.7191011,28.7972034 L69.3058964,28.7972034 C69.852442,30.4755112 70.1492522,32.2651739 70.1492522,34.1242839" id="Fill-14" fill="#FFFFFF"></path>
                        <path d="M70.1492522,34.1568678 L70.1492522,35.4117529 L57.303037,47.25064 L53.0208323,51.1972034 L35.8979975,35.4117529 L28.7191011,28.7972034 L69.3058964,28.7972034 C69.852442,30.4857768 70.1492522,32.2863863 70.1492522,34.1568678" id="Fill-15" fill="#00DCF7"></path>
                        <path d="M70.1492522,34.4686405 L56.8490451,44.9729236 L53.0208323,47.9972034 L35.8979975,34.4686405 L28.7191011,28.7972034 L70.1492522,28.7972034 C70.1492522,30.4681939 70.1492522,32.3206638 70.1492522,34.2095207 L70.1492522,34.4686405 Z" id="Fill-16" fill="#FFFFFF"></path>
                    </g>
                </g>
            </g>
        </g>
    </g>
</svg>