<svg xmlns="http://www.w3.org/2000/svg" width="16" height="13" viewBox="0 0 16 13">
  <path fill="#071228" fill-rule="evenodd" d="M268.006092,242.361047 C269.683322,242.521481 271.197094,242.09261 272.539285,241.028297 C271.886465,240.982159 271.293545,240.773491 270.771695,240.371884 C270.245784,239.968179 269.884346,239.440741 269.659971,238.771744 C270.125981,238.84934 270.56661,238.836757 271.029574,238.720364 C269.476207,238.236967 268.656882,237.186286 268.569568,235.534766 C269.007151,235.733997 269.444733,235.890236 269.962523,235.89443 C269.178732,235.307223 268.720844,234.550146 268.613225,233.595934 C268.523881,232.797962 268.699523,232.14784 269.014258,231.60677 C270.704687,233.654655 272.839806,234.787126 275.451088,234.971676 C275.430782,234.770348 275.406416,234.593137 275.396263,234.41383 C275.342454,233.339031 275.716074,232.441443 276.506972,231.757767 C277.334419,231.042632 278.293852,230.842353 279.341613,231.120228 C279.876662,231.262835 280.335566,231.544904 280.722385,231.950706 C280.774164,232.005232 280.823912,232.013621 280.895996,231.996844 C281.48587,231.859479 282.050362,231.656054 282.577288,231.34777 C282.627037,231.319458 282.678815,231.295341 282.730594,231.270175 C282.735671,231.268078 282.744808,231.274369 282.765114,231.279612 C282.530586,232.002087 282.091988,232.556788 281.481809,232.976221 C281.48587,232.987756 281.488916,232.99929 281.491961,233.010824 C281.678772,232.97727 281.866597,232.950006 282.050362,232.905966 C282.240218,232.860877 282.428043,232.805302 282.612823,232.744484 C282.797602,232.683666 282.978321,232.610265 283.160055,232.543156 C283.168177,232.551545 283.175284,232.558885 283.183406,232.567273 C282.995581,232.804253 282.824,233.058011 282.616884,233.275068 C282.338699,233.566574 282.036148,233.832914 281.738673,234.105546 C281.67268,234.166364 281.639176,234.222987 281.643237,234.318409 C281.679787,235.252697 281.563031,236.169159 281.31835,237.066747 C281.112249,237.823825 280.819851,238.544202 280.442169,239.229976 C280.013724,240.008025 279.493904,240.710576 278.871542,241.332386 C278.089782,242.113581 277.194311,242.716517 276.18513,243.135951 C275.211483,243.541753 274.198241,243.753567 273.149464,243.792364 C272.404254,243.820676 271.663105,243.772441 270.933123,243.610959 C270.201112,243.449477 269.491436,243.211449 268.824402,242.853882 C268.547232,242.704983 268.274124,242.549792 268,242.396699 C268.002031,242.385165 268.004061,242.37363 268.006092,242.361047" transform="translate(-268 -231)"/>
</svg>
