<?xml version="1.0" encoding="UTF-8"?>
<svg width="21px" height="19px" viewBox="0 0 21 19" version="1.1" xmlns="http://www.w3.org/2000/svg" xmlns:xlink="http://www.w3.org/1999/xlink">
    <!-- Generator: Sketch 53 (72520) - https://sketchapp.com -->
    <title>twittr</title>
    <desc>Created with Sketch.</desc>
    <g id="twittr" stroke="none" stroke-width="1" fill="none" fill-rule="evenodd">
        <path d="M1.0078,16.0850536 C3.15539992,16.2839536 5.09369985,15.7522536 6.81229979,14.4327537 C5.97639982,14.3755537 5.21719985,14.1168537 4.54899987,13.6189537 C3.87559989,13.1184537 3.41279991,12.4645538 3.12549992,11.6351538 C3.7221999,11.7313538 4.28639988,11.7157538 4.87919986,11.5714538 C2.89019993,10.9721538 1.84109997,9.66955386 1.72929997,7.62205394 C2.28959995,7.86905393 2.84989993,8.06275392 3.51289991,8.06795392 C2.50929994,7.33995395 1.92299997,6.40135398 1.78519997,5.21835403 C1.67079998,4.22905406 1.89569997,3.42305409 2.29869995,2.75225412 C4.46319987,5.29115403 7.19709977,6.69515397 10.5406997,6.92395397 C10.5146997,6.67435397 10.4834997,6.45465398 10.4704997,6.23235399 C10.4015997,4.89985404 10.8799996,3.78705408 11.8926996,2.93945411 C12.9521996,2.05285414 14.1806995,1.80455415 15.5222995,2.14905414 C16.2073994,2.32585413 16.7949994,2.67555412 17.2902994,3.1786541 C17.3565994,3.2462541 17.4202994,3.2566541 17.5125994,3.2358541 C18.2678994,3.06555411 18.9906993,2.81335412 19.6653993,2.43115413 C19.7290993,2.39605413 19.7953993,2.36615413 19.8616993,2.33495413 C19.8681993,2.33235413 19.8798993,2.34015413 19.9058993,2.34665413 C19.6055993,3.2423541 19.0439993,3.93005408 18.2626994,4.45005406 C18.2678994,4.46435406 18.2717994,4.47865406 18.2756994,4.49295405 C18.5148994,4.45135406 18.7553993,4.41755406 18.9906993,4.36295406 C19.2337993,4.30705406 19.4742993,4.23815406 19.7108993,4.16275407 C19.9474993,4.08735407 20.1788993,3.99635407 20.4115993,3.91315408 C20.4219993,3.92355408 20.4310993,3.93265408 20.4414993,3.94305407 C20.2009993,4.23685406 19.9812993,4.55145405 19.7160993,4.82055404 C19.3598993,5.18195403 18.9724993,5.51215402 18.5915994,5.850154 C18.5070994,5.925554 18.4641994,5.995754 18.4693994,6.114054 C18.5161994,7.27235395 18.3666994,8.40855391 18.0533994,9.52135387 C17.7894994,10.4599538 17.4150994,11.3530538 16.9314994,12.2032538 C16.3828994,13.1678537 15.7172995,14.0388537 14.9203995,14.8097537 C13.9193995,15.7782536 12.7727996,16.5257536 11.4805996,17.0457536 C10.2338997,17.5488536 8.93649971,17.8114536 7.59359976,17.8595536 C6.63939979,17.8946536 5.69039983,17.8348536 4.75569986,17.6346536 C3.8183999,17.4344536 2.90969993,17.1393536 2.05559996,16.6960536 C1.70069997,16.5114536 1.35099999,16.3190536 1,16.1292536 C1.0026,16.1149536 1.0052,16.1006536 1.0078,16.0850536" id="Fill-11" fill="#687483"></path>
    </g>
</svg>