<svg xmlns="http://www.w3.org/2000/svg" width="17" height="12" viewBox="0 0 17 12">
  <path fill="#071228" fill-rule="evenodd" d="M351.212966,240.876353 L351.212966,235.158226 L356.173509,238.016766 L351.212966,240.876353 Z M361.422504,233.681802 C361.260185,233.030038 360.777364,232.515543 360.167377,232.337408 C359.678353,232.212714 358.534885,232.122599 356.966493,232.064967 C356.184882,232.036675 355.346407,232.018861 354.507933,232.008383 C354.214311,232.004191 353.942402,232.002096 353.697373,232.001048 C353.550562,232 353.446141,232 353.390311,232 C353.335516,232 353.231094,232 353.084284,232.001048 C352.840289,232.002096 352.567345,232.005239 352.273724,232.008383 C351.435249,232.019909 350.597809,232.039818 349.815164,232.071254 C348.250907,232.133077 347.107439,232.232623 346.62772,232.366748 C346.000157,232.55117 345.515268,233.069857 345.362254,233.699616 C345.115158,235.124694 344.994194,236.568634 345.000397,238.018861 C344.992126,239.476423 345.11309,240.93189 345.352949,242.326581 C345.527675,242.962627 346.009462,243.459308 346.622551,243.633252 C347.107439,243.768425 348.250907,243.866923 349.815164,243.929794 C350.597809,243.960182 351.435249,243.981139 352.273724,243.991617 C352.567345,243.995809 352.840289,243.997904 353.084284,243.998952 C353.231094,244 353.335516,244 353.390311,244 C353.446141,244 353.550562,244 353.697373,243.998952 C353.941368,243.997904 354.214311,243.995809 354.507933,243.991617 C355.346407,243.981139 356.183848,243.960182 356.965459,243.929794 C358.530749,243.866923 359.674217,243.768425 360.152902,243.6343 C360.7815,243.449878 361.266388,242.931191 361.419402,242.300384 C361.664431,240.88788 361.785395,239.454418 361.781259,238.01467 C361.78953,236.562347 361.6696,235.111072 361.422504,233.681802 L361.422504,233.681802 Z" transform="translate(-345 -232)"/>
</svg>
