<?xml version="1.0" encoding="UTF-8"?>
<svg width="21px" height="19px" viewBox="0 0 21 19" version="1.1" xmlns="http://www.w3.org/2000/svg" xmlns:xlink="http://www.w3.org/1999/xlink">
    <!-- Generator: Sketch 53 (72520) - https://sketchapp.com -->
    <title>youtube</title>
    <desc>Created with Sketch.</desc>
    <g id="youtube" stroke="none" stroke-width="1" fill="none" fill-rule="evenodd">
        <path d="M7.77469491,13.0954418 L7.77469491,5.94778205 L13.9821505,9.52095704 L7.77469491,13.0954418 Z M20.5505648,4.10225288 C20.3474446,3.28754803 19.7432592,2.64442892 18.9799414,2.42176039 C18.3679934,2.26589242 16.937096,2.15324834 14.9744636,2.08120852 C13.9963818,2.04584352 12.9471433,2.02357667 11.8979048,2.01047852 C11.5304772,2.00523926 11.1902186,2.00261963 10.8835977,2.00130981 C10.6998839,2 10.5692143,2 10.4993513,2 C10.4307821,2 10.3001124,2 10.1163987,2.00130981 C9.81107153,2.00261963 9.46951916,2.00654907 9.10209162,2.01047852 C8.05285309,2.02488648 7.00490832,2.04977297 6.02553277,2.08906741 C4.06807544,2.16634649 2.63717802,2.2907789 2.03687385,2.45843521 C1.25156216,2.68896263 0.644789198,3.33732099 0.453312869,4.12451973 C0.144104474,5.90586797 -0.00726532565,7.71079287 0.000497228201,9.52357667 C-0.0098528436,11.3455292 0.141516956,13.164862 0.441669039,14.9082256 C0.660314305,15.7032833 1.26320599,16.3241355 2.03040506,16.5415648 C2.63717802,16.7105309 4.06807544,16.8336535 6.02553277,16.9122424 C7.00490832,16.950227 8.05285309,16.9764233 9.10209162,16.9895215 C9.46951916,16.9947607 9.81107153,16.9973804 10.1163987,16.9986902 C10.3001124,17 10.4307821,17 10.4993513,17 C10.5692143,17 10.6998839,17 10.8835977,16.9986902 C11.1889248,16.9973804 11.5304772,16.9947607 11.8979048,16.9895215 C12.9471433,16.9764233 13.9950881,16.950227 14.9731698,16.9122424 C16.9319209,16.8336535 18.3628184,16.7105309 18.9618288,16.5428746 C19.7484342,16.3123472 20.3552072,15.6639888 20.5466835,14.8754803 C20.8533044,13.1098498 21.0046742,11.3180231 20.9994991,9.51833741 C21.0098492,7.70293399 20.8597732,5.88884038 20.5505648,4.10225288 L20.5505648,4.10225288 Z" id="Fill-1" fill="#687483"></path>
    </g>
</svg>